# Blender 4.2.1 LTS
# www.blender.org
mtllib FenceSingularobj.mtl
o FenceSingular
v -20.466206 4.698468 -0.203006
v -20.466206 -4.698468 -0.203006
v -20.466206 4.698468 0.203006
v -20.466206 -4.698468 0.203006
v -22.466206 4.698468 -0.203006
v -22.466206 -4.698468 -0.203006
v -22.466206 4.698468 0.203006
v -22.466206 -4.698468 0.203006
v -21.466206 6.104673 0.000000
vn -0.0000 0.1429 0.9897
vn -0.0000 -0.0000 1.0000
vn -1.0000 -0.0000 -0.0000
vn -0.0000 -1.0000 -0.0000
vn 1.0000 -0.0000 -0.0000
vn -0.0000 -0.0000 -1.0000
vn -0.8149 0.5795 -0.0000
vn 0.8149 0.5795 -0.0000
vn -0.0000 0.1429 -0.9897
vt 0.185131 0.131178
vt 0.000000 0.131178
vt 0.092566 0.000000
vt 0.000000 0.998778
vt 0.185131 0.998778
vt 0.370263 1.000000
vt 0.370263 0.130166
vt 0.407846 0.130166
vt 0.407846 1.000000
vt 0.483011 0.000000
vt 0.483011 0.185131
vt 0.445428 0.185131
vt 0.445428 0.000000
vt 0.407845 1.000000
vt 0.407845 0.130166
vt 0.445428 0.130166
vt 0.445428 1.000000
vt 0.370263 0.131178
vt 0.370263 0.998778
vt 0.389054 0.000000
vt 0.426637 0.000000
vt 0.277697 0.000000
s 0
usemtl Material.007
f 7/1/1 3/2/1 9/3/1
f 4/4/2 3/2/2 7/1/2 8/5/2
f 8/6/3 7/7/3 5/8/3 6/9/3
f 6/10/4 2/11/4 4/12/4 8/13/4
f 2/14/5 1/15/5 3/16/5 4/17/5
f 6/5/6 5/1/6 1/18/6 2/19/6
f 5/8/7 7/7/7 9/20/7
f 3/16/8 1/15/8 9/21/8
f 1/18/9 5/1/9 9/22/9
